HIERARCHY
ROOT root
{
	OFFSET 0.000000 0.000000 0.000000
	CHANNELS 6 Xposition Yposition Zposition Zrotation Yrotation Xrotation
	JOINT lhip
	{
		OFFSET 0.058581 -0.082280 -0.017664
		CHANNELS 3 Zrotation Yrotation Xrotation
		JOINT lknee
		{
			OFFSET 0.043451 -0.386469 0.008037
			CHANNELS 3 Zrotation Yrotation Xrotation
			JOINT lankle
			{
				OFFSET -0.014790 -0.426874 -0.037428
				CHANNELS 3 Zrotation Yrotation Xrotation
				JOINT ltoe
				{
					OFFSET 0.041054 -0.060286 0.122042
					CHANNELS 3 Zrotation Yrotation Xrotation
					End Site
					{
						OFFSET 0.000000 0.000000 0.000000
					}
				}
			}
		}
	}
	JOINT rhip
	{
		OFFSET -0.060310 -0.090513 -0.013543
		CHANNELS 3 Zrotation Yrotation Xrotation
		JOINT rknee
		{
			OFFSET -0.043257 -0.383688 -0.004843
			CHANNELS 3 Zrotation Yrotation Xrotation
			JOINT rankle
			{
				OFFSET 0.019056 -0.420046 -0.034562
				CHANNELS 3 Zrotation Yrotation Xrotation
				JOINT rtoe
				{
					OFFSET -0.034840 -0.062106 0.130323
					CHANNELS 3 Zrotation Yrotation Xrotation
					End Site
					{
						OFFSET 0.000000 0.000000 0.000000
					}
				}
			}
		}
	}
	JOINT lowerback
	{
		OFFSET 0.004439 0.124404 -0.038385
		CHANNELS 3 Zrotation Yrotation Xrotation
		JOINT upperback
		{
			OFFSET 0.004488 0.137956 0.026820
			CHANNELS 3 Zrotation Yrotation Xrotation
			JOINT chest
			{
				OFFSET -0.002265 0.056032 0.002855
				CHANNELS 3 Zrotation Yrotation Xrotation
				JOINT lowerneck
				{
					OFFSET -0.013390 0.211636 -0.033468
					CHANNELS 3 Zrotation Yrotation Xrotation
					JOINT upperneck
					{
						OFFSET 0.010113 0.088937 0.050410
						CHANNELS 3 Zrotation Yrotation Xrotation
						End Site
						{
							OFFSET 0.000000 0.000000 0.000000
						}
					}
				}
				JOINT lclavicle
				{
					OFFSET 0.071702 0.114000 -0.018898
					CHANNELS 3 Zrotation Yrotation Xrotation
					JOINT lshoulder
					{
						OFFSET 0.122921 0.045205 -0.019046
						CHANNELS 3 Zrotation Yrotation Xrotation
						JOINT lelbow
						{
							OFFSET 0.255332 -0.015649 -0.022946
							CHANNELS 3 Zrotation Yrotation Xrotation
							JOINT lwrist
							{
								OFFSET 0.265709 0.012698 -0.007375
								CHANNELS 3 Zrotation Yrotation Xrotation
								End Site
								{
									OFFSET 0.000000 0.000000 0.000000
								}
							}
						}
					}
				}
				JOINT rclavicle
				{
					OFFSET -0.082954 0.112472 -0.023707
					CHANNELS 3 Zrotation Yrotation Xrotation
					JOINT rshoulder
					{
						OFFSET -0.113228 0.046853 -0.008472
						CHANNELS 3 Zrotation Yrotation Xrotation
						JOINT relbow
						{
							OFFSET -0.260127 -0.014369 -0.031269
							CHANNELS 3 Zrotation Yrotation Xrotation
							JOINT rwrist
							{
								OFFSET -0.269108 0.006794 -0.006027
								CHANNELS 3 Zrotation Yrotation Xrotation
								End Site
								{
									OFFSET 0.000000 0.000000 0.000000
								}
							}
						}
					}
				}
			}
		}
	}
}
MOTION
Frames: 18
Frame Time: 0.033333
1.167920 0.164787 0.987237 -88.529415 1.940028 86.505808 -1.027323 -1.148071 7.067211 -2.711796 -16.273241 -0.435121 6.018044 7.806626 -15.404046 0.000000 -0.000000 0.000000 3.344962 -3.101347 0.861544 3.506182 1.686547 10.499064 3.094960 -3.928237 -13.562482 0.000000 -0.000000 0.000000 -2.759316 2.093235 7.251700 1.845620 -2.109529 4.002564 2.243297 -1.979405 5.130218 1.639262 10.658146 5.452101 1.221558 6.070593 9.734148 -22.200666 4.924892 2.958599 -63.160893 -9.805901 7.836428 15.971880 -36.059170 -3.469434 1.643810 -1.802451 -15.066897 22.041681 -4.143189 3.596201 63.015028 0.014584 11.369117 -15.477318 26.750586 -4.863516 7.370199 0.704849 -11.994271 
1.165615 0.164308 0.986824 -88.820849 2.160826 86.480490 -0.746271 -1.004312 7.201369 -2.861875 -16.340793 -0.280286 6.194090 7.893745 -15.683653 0.000000 -0.000000 0.000000 3.562845 -2.360129 1.393698 3.635748 1.343811 9.978159 2.793541 -4.279560 -13.514354 0.000000 -0.000000 0.000000 -2.773993 2.118922 7.012750 2.201877 -1.989864 3.500833 2.032321 -1.867546 5.085391 3.724042 4.643287 8.880950 2.082392 1.203205 10.619813 -21.956391 5.026342 4.111501 -63.336797 -9.273866 8.910747 14.429227 -37.384378 0.747795 -0.277502 -4.207148 -16.146305 21.287358 -3.956702 3.939734 63.608738 0.110048 10.876212 -16.181679 27.219140 -3.845435 7.131048 0.456436 -11.985607 
1.163611 0.164776 0.986056 -89.157365 2.475629 86.661847 -0.271031 -0.698286 6.798960 -3.164551 -16.205245 0.331697 6.338600 7.802431 -15.881353 0.000000 -0.000000 0.000000 3.938251 -2.384722 1.360387 3.564052 1.413198 9.999920 2.853751 -4.196793 -13.531145 0.000000 -0.000000 0.000000 -2.667815 2.218597 6.344650 2.399386 -1.963986 3.562293 1.913344 -1.585805 5.155966 4.517853 2.172840 9.431532 2.671882 -1.172668 10.615275 -22.149961 5.034294 3.979208 -63.418990 -8.784351 9.745974 12.607265 -37.286556 4.439670 0.910943 -2.190620 -10.776341 21.143269 -3.946885 3.446770 63.565085 0.059748 10.263455 -16.250291 27.536329 -4.007818 7.235472 0.424568 -11.315085 
1.160410 0.163980 0.985870 -89.343396 2.535803 86.497047 -0.332720 -0.536905 7.085548 -3.153134 -16.159447 0.587995 6.378697 7.958087 -16.210302 0.000000 -0.000000 0.000000 3.865910 -2.514855 1.982067 3.662668 1.791589 9.653058 2.866191 -4.209746 -13.517294 0.000000 -0.000000 0.000000 -2.636565 2.244450 6.008172 2.341986 -2.018011 3.612289 1.855300 -1.644937 5.155932 4.458044 2.097167 8.171677 2.164054 -1.221551 10.035846 -22.492998 5.237411 3.829875 -63.483411 -8.114576 9.796311 11.717545 -36.516589 5.528797 0.831253 -2.084198 -10.292878 21.199251 -3.931896 3.110668 63.402884 0.128355 10.360551 -16.223691 27.867724 -4.060125 7.042871 0.272062 -11.347174 
1.158799 0.163584 0.985610 -89.513634 2.615878 86.536280 -0.366203 -0.606312 7.067689 -3.062952 -16.002148 0.768055 6.428901 8.089845 -16.407540 0.000000 -0.000000 0.000000 4.009067 -2.322002 2.068333 3.569669 1.911753 9.627082 2.867536 -4.467992 -13.607042 0.000000 -0.000000 0.000000 -2.666388 2.256725 5.648658 2.331383 -1.999158 3.539963 1.889063 -1.696277 5.341017 4.535052 1.968078 7.720370 2.060761 -1.287964 9.782586 -22.535109 5.385870 3.810630 -63.730979 -7.772731 9.850112 11.292741 -35.781728 6.097773 0.769920 -2.046451 -10.156638 21.258891 -3.968992 3.033397 63.288272 0.362524 10.464605 -16.241120 28.003060 -3.952926 6.897581 0.318620 -11.281484 
1.156529 0.162931 0.985496 -89.605655 2.674071 86.513522 -0.292512 -0.577710 7.237820 -3.197317 -15.970664 0.804563 6.388385 8.085856 -16.559654 0.000000 -0.000000 0.000000 4.026264 -2.276478 2.346067 3.604162 2.122740 9.478663 2.856762 -4.586857 -13.683159 0.000000 -0.000000 0.000000 -2.640099 2.190635 5.432410 2.270590 -2.043029 3.371245 1.838035 -1.820462 5.310213 4.661675 1.791463 7.172948 1.991794 -1.352824 9.528920 -22.670457 5.480612 3.987834 -63.920303 -7.197367 9.711904 11.359664 -34.514410 5.900828 0.758476 -2.312019 -10.559525 21.360710 -4.020533 2.946189 63.202186 0.422362 10.615272 -16.131887 27.994913 -3.817830 6.671703 0.257127 -11.480856 
1.154776 0.162245 0.985243 -89.882754 2.720050 86.526019 -0.299542 -0.366209 7.478568 -3.129849 -15.957224 0.617458 6.346297 8.156544 -16.740067 0.000000 -0.000000 0.000000 3.989548 -2.301822 2.387005 3.667648 2.399264 9.583671 2.878281 -4.592430 -13.801864 0.000000 -0.000000 0.000000 -2.520078 2.108553 5.182155 2.170722 -2.026770 3.278409 1.675531 -1.957424 5.540094 4.696056 2.166103 6.270340 1.671513 -1.047650 9.175398 -22.761958 5.852363 3.588112 -63.987526 -6.593426 9.592868 10.799692 -32.797996 6.525154 0.717331 -2.213566 -9.938776 21.347063 -4.637060 2.178242 63.218070 0.718784 10.917660 -15.366523 27.848433 -2.975722 6.629825 0.284142 -11.117346 
1.153432 0.161271 0.985270 -89.918488 2.738303 86.295445 -0.371471 -0.424417 7.964090 -3.065656 -15.844169 0.352883 6.522332 8.179586 -16.572826 0.000000 -0.000000 0.000000 3.924045 -2.104476 2.701093 3.772177 2.382037 9.664136 2.649350 -4.762027 -13.831046 0.000000 -0.000000 0.000000 -2.600270 1.993961 4.535029 2.170343 -2.283463 4.391325 1.645751 -1.810465 5.572641 4.697813 2.521918 5.240800 1.412751 -0.951554 8.552057 -22.969471 5.380579 3.540619 -63.884135 -6.227351 9.437127 10.392970 -30.956443 6.934558 -1.817875 -2.126090 -9.932693 21.486431 -4.305911 1.910906 63.275664 0.928598 10.828173 -15.545615 27.537087 -3.270331 7.397327 0.251563 -11.369130 
1.152023 0.160416 0.985111 -89.952584 2.832725 86.274531 -0.292306 -0.280688 8.126695 -3.025891 -15.863383 0.286286 6.348309 8.117804 -16.875502 0.000000 -0.000000 0.000000 3.947275 -2.122066 2.870829 3.793724 2.410267 9.552113 2.621914 -4.779567 -13.804831 0.000000 -0.000000 0.000000 -2.624646 1.946871 4.419932 2.188740 -2.367721 4.410827 1.681261 -1.889726 5.576315 4.889185 2.264626 4.797191 1.171825 -1.171170 8.369002 -23.091313 5.591824 3.448225 -63.958702 -5.884835 9.143002 10.288082 -28.979284 7.037127 -2.101429 -2.181514 -9.609962 21.442977 -4.443764 1.780449 63.378546 0.914929 10.851936 -15.426721 27.182206 -3.079175 7.277420 0.224633 -11.340380 
1.150307 0.159631 0.984822 -90.129515 2.929688 86.226465 -0.187620 -0.017967 8.446280 -3.033822 -16.079949 0.046259 6.419589 8.205889 -16.834009 0.000000 -0.000000 0.000000 3.927375 -2.313408 2.932422 3.844013 2.525970 9.758086 2.553951 -4.512568 -13.896060 0.000000 -0.000000 0.000000 -2.710732 1.974344 4.261374 2.217153 -2.401318 4.410248 1.744518 -1.959807 5.460747 5.465962 1.639461 4.952188 2.458912 -1.551298 7.836704 -23.091603 5.528614 3.901472 -64.040321 -5.332677 8.659385 10.598724 -27.056762 6.573477 -2.067093 -1.838351 -9.598716 21.242188 -4.375499 2.071716 63.616208 0.793664 10.570168 -15.318782 26.906099 -2.789418 7.436599 0.084352 -11.441982 
1.149331 0.159246 0.984790 -90.013335 2.981320 86.332882 -0.044674 0.162276 8.409600 -3.183743 -16.292148 -0.018341 6.462044 8.075691 -16.829623 0.000000 -0.000000 0.000000 3.989440 -2.408715 2.848517 3.814759 2.692942 9.777777 2.502968 -4.635887 -13.942029 0.000000 -0.000000 0.000000 -2.739667 1.886755 4.252208 2.184695 -2.435473 4.154235 1.707488 -2.123932 5.472441 5.578271 1.452749 4.926567 2.616016 -1.674935 7.873116 -23.089430 5.776720 4.030068 -63.880641 -5.025315 8.321548 10.618173 -25.546987 6.603626 -2.101647 -1.979682 -9.560022 21.378609 -4.713158 2.036781 63.591478 0.724528 10.502977 -15.042237 26.575176 -2.508214 7.120150 0.382298 -11.204789 
1.148720 0.158929 0.984823 -89.900970 3.038395 86.369767 0.040467 0.101739 8.395389 -3.253588 -16.217896 0.052393 6.451497 8.108229 -17.038353 0.000000 -0.000000 0.000000 4.141628 -2.367566 2.822486 3.672031 2.747981 9.813650 2.500443 -4.966194 -13.968383 0.000000 -0.000000 0.000000 -2.894914 1.810088 4.303471 2.281786 -2.572496 4.044363 1.803578 -2.186603 5.498823 5.895317 0.880100 4.528530 2.544402 -2.226297 7.654868 -23.142941 5.960411 4.099977 -63.642659 -4.685501 8.121489 10.603443 -24.535628 6.601565 -2.158457 -1.830666 -9.655869 21.487130 -4.730823 2.020460 63.477629 0.603376 10.595935 -14.995429 26.212111 -2.419651 6.912370 0.436383 -11.188432 
1.148713 0.158474 0.984747 -89.976203 3.084488 86.401093 0.092625 0.172078 8.396306 -3.309849 -16.252954 -0.010241 6.494227 8.126864 -17.058221 0.000000 -0.000000 0.000000 4.169581 -2.275761 2.692490 3.686410 2.837809 9.947977 2.495072 -4.989381 -14.013995 0.000000 -0.000000 0.000000 -2.914890 1.798517 4.246459 2.224019 -2.566029 4.167284 1.805659 -2.102499 5.509997 5.722307 1.401911 4.242157 2.617569 -1.953295 7.596109 -23.066840 5.965420 4.084497 -63.512505 -4.681933 7.801514 10.843067 -23.576339 6.193058 -2.165114 -1.500649 -9.450863 21.643305 -4.783634 2.090466 63.511067 0.519397 10.546252 -14.971487 25.920774 -2.278773 6.978704 0.364890 -11.052592 
1.148593 0.157964 0.984660 -89.937402 3.115630 86.387918 0.105722 0.194456 8.442697 -3.330980 -16.423243 -0.059045 6.535684 8.182590 -17.023814 0.000000 -0.000000 0.000000 4.184954 -2.155883 2.660276 3.689967 2.750901 10.047724 2.443674 -5.077810 -14.059841 0.000000 -0.000000 0.000000 -2.954847 1.772496 4.261701 2.258149 -2.575333 4.291093 1.864790 -2.095186 5.441160 5.689843 1.410043 4.233857 2.718163 -1.903220 7.498133 -22.903469 5.963954 4.193273 -63.402934 -4.577502 7.638891 10.995497 -23.209155 5.826370 -2.181834 -1.173376 -9.541749 21.459434 -4.713665 2.210349 63.695264 0.391692 10.500377 -14.787566 25.649211 -2.221934 7.448942 -0.010779 -11.389258 
1.148478 0.157752 0.984768 -89.913972 3.115517 86.533939 0.112712 0.247646 8.321343 -3.382885 -16.404454 -0.050769 6.513094 8.139169 -17.089197 0.000000 -0.000000 0.000000 4.159355 -2.113663 2.489112 3.727573 2.810214 10.045734 2.517821 -5.189517 -14.036487 0.000000 -0.000000 0.000000 -3.071747 1.804473 4.211972 2.286297 -2.505729 4.084951 1.937190 -2.083376 5.599975 5.870457 1.451862 3.978971 2.847233 -2.007755 7.467104 -22.925349 6.019877 4.095976 -63.020375 -4.660813 7.501832 10.941507 -22.800282 5.697781 -2.249324 -1.439330 -9.321635 21.745865 -4.915901 2.130404 63.491051 0.215389 10.567093 -14.874389 25.266336 -1.921938 7.172979 0.365831 -10.669811 
1.148814 0.157549 0.984683 -89.968593 3.138870 86.681524 0.128567 0.172319 8.133575 -3.417778 -16.231272 -0.014028 6.633346 8.099429 -16.993360 0.000000 -0.000000 0.000000 4.169409 -2.206220 2.238853 3.705581 2.899359 10.139118 2.512628 -5.089083 -14.031567 0.000000 -0.000000 0.000000 -3.124184 1.985190 4.329864 2.390605 -2.414021 3.876750 1.998998 -2.082986 5.418067 5.806377 1.365449 4.288728 2.883280 -1.965005 7.538979 -22.776965 6.031044 4.207072 -62.842619 -4.765179 7.420820 10.970742 -22.850159 5.436770 -2.237998 -1.401602 -9.560630 21.470364 -4.942815 2.282424 63.852574 -0.213566 10.549169 -14.924084 25.069375 -2.024295 7.366048 0.243704 -11.209824 
1.148517 0.157122 0.984528 -89.869452 3.140359 86.736904 0.119440 0.182750 8.082437 -3.426650 -16.190508 0.005309 6.619644 7.997138 -17.066953 0.000000 -0.000000 0.000000 4.070374 -2.661717 2.157243 3.729695 3.071914 10.223458 2.619994 -4.902383 -14.066563 0.000000 -0.000000 0.000000 -3.065315 2.024475 4.313675 2.379257 -2.488747 3.791011 2.000181 -2.047298 5.432727 5.793727 1.260424 4.296990 2.912698 -2.035275 7.574776 -22.774517 6.085450 4.106318 -62.634565 -4.961507 7.290944 11.151481 -22.986423 5.146157 -2.003791 -1.557021 -9.835272 21.513180 -4.998192 2.390803 63.728457 -0.229581 10.481259 -14.853125 24.807409 -1.884697 7.367039 0.279848 -10.911520 
1.148557 0.156563 0.984578 -89.752822 3.152867 86.568206 0.097545 0.167370 8.303490 -3.405877 -16.367512 -0.080152 6.594734 8.015675 -16.991374 0.000000 -0.000000 0.000000 4.040149 -2.705621 2.304962 3.754400 3.031670 10.311690 2.567212 -4.955472 -14.089633 0.000000 -0.000000 0.000000 -3.070084 2.105530 4.234601 2.440602 -2.461450 4.278256 2.035843 -2.022981 5.455739 5.848772 1.307791 4.146850 2.998919 -2.121373 7.467852 -22.681251 5.837540 4.026415 -62.486072 -5.310266 7.304450 11.087805 -23.640937 4.903038 -2.033304 -1.439700 -9.885109 21.481779 -4.802316 2.365890 63.727980 -0.196793 10.329789 -14.908455 24.692107 -2.083725 7.365146 0.411684 -10.745248 
